<svg id="eWqHJELT6fe1" xmlns="http://www.w3.org/2000/svg" xmlns:xlink="http://www.w3.org/1999/xlink" viewBox="0 0 112 112" shape-rendering="geometricPrecision" text-rendering="geometricPrecision">
<style><![CDATA[
#eWqHJELT6fe3_tr {animation: eWqHJELT6fe3_tr__tr 12000ms linear infinite normal forwards}@keyframes eWqHJELT6fe3_tr__tr { 0% {transform: translate(55.717159px,55.900002px) rotate(0deg)} 100% {transform: translate(55.717159px,55.900002px) rotate(360deg)}}
]]></style>
<defs><rect id="eWqHJELT6fe2" width="112" height="111.9" rx="0" ry="0"/></defs><g id="eWqHJELT6fe3_tr" transform="translate(55.717159,55.900002) rotate(0)"><g transform="translate(-55.717159,-55.900002)"><g clip-path="url(#eWqHJELT6fe40)"><g><path d="M9.9,27.1L8.8,28.8L15.3,33l1.1-1.7c1.3-2,.8-4.2-1.1-5.4-2-1.3-4.2-.8-5.4,1.2Zm5.6,3.6l-.5.8-4.8-3.1.5-.8c.9-1.4,2.5-1.8,4-.8c1.4.9,1.7,2.5.8,3.9Z" fill="#dfdeca"/><path d="M17.5,18.8l-.7-.6-2.6,3l5.7,5.1l2.6-3-.7-.6-2,2.2-2-1.8l1.9-2.2-.7-.6-1.9,2.2L15.5,21l2-2.2Z" fill="#dfdeca"/><path d="M26.6,19.8c1.4-1.2,1.7-2.7.7-3.9-.8-1-1.8-1.1-3.1-.3l-1.1.6c-.7.4-1.2.5-1.6,0s-.2-1.2.4-1.7c.7-.5,1.4-.6,1.9-.1l.9-.7c-.9-.9-2.1-.8-3.3.1-1.2,1-1.4,2.2-.6,3.2.7.8,1.6.9,2.8.2l1.1-.7c.8-.4,1.4-.5,1.9.1.6.7.4,1.7-.5,2.4-1.1.9-2.4.8-3.2-.4l-.9.7c1,1.6,2.9,1.8,4.6.5Z" fill="#dfdeca"/><path d="M30.7,16.6l.9-.6-4.1-6.5-.9.6l4.1,6.5Z" fill="#dfdeca"/><path d="M39.1,7.4L35.7,8.9l.3.8l2.5-1.1c.5,1.6-.1,3-1.6,3.7-1.6.7-3.3.1-4-1.5s-.1-3.2,1.5-3.9c1-.5,2.1-.4,2.8.2l1.1-.5c-1-1.1-2.7-1.3-4.3-.6-2.1.9-3.1,3.1-2.1,5.3.9,2.1,3.2,2.9,5.3,2c2.4-1.1,3.2-3.5,1.9-5.9Z" fill="#dfdeca"/><path d="M42.9,10.9l1-.2-1.4-6v0l4.7,5.2l1.1-.2-1.7-7.5-1,.2l1.4,6v0L42.3,3.2l-1.1.3l1.7,7.4Z" fill="#dfdeca"/><path d="M55.7,8.2l.1-6.7h-1.1l-.1,7.7l3.9.1v-1l-2.8-.1Z" fill="#dfdeca"/><path d="M65.3,3.2l.1-.9-3.9-.5-1,7.6l3.9.5.1-.9-2.9-.4.4-2.7l2.9.4.1-.9L62.1,5l.3-2.3l2.9.5Z" fill="#dfdeca"/><path d="M72.4,12l1.1.3L72.7,4l-1.3-.4L66.1,10l1.1.3l2-2.4l3,.9.2,3.2ZM71.1,5.6c.2-.3.5-.6.7-.9h.1c0,.3,0,.7.1,1.1L72.2,8l-2.3-.7l1.2-1.7Z" fill="#dfdeca"/><path d="M80.5,7.3l-1.8-.9-3.6,6.8l1.8.9c2.1,1.1,4.2.4,5.3-1.6s.4-4.2-1.7-5.2Zm-3.2,5.9l-.8-.4l2.7-5.1.8.4c1.5.8,2,2.4,1.2,3.9s-2.4,2-3.9,1.2Z" fill="#dfdeca"/><path d="M89.4,14.1l.5-.7L86.8,11l-4.6,6.2l3.2,2.4.5-.7L83.6,17l1.6-2.1l2.3,1.7.5-.7-2.3-1.7l1.4-1.8l2.3,1.7Z" fill="#dfdeca"/><path d="M90.6,24.3l1,1l.3-4.6c.9.9,2.1.9,3,0s.8-2.1-.1-3.1l-2.1-2.1L87.2,21l.7.7l2.5-2.5.5.5-.3,4.6Zm2.1-7.4L94,18.2c.6.6.6,1.3.1,1.8s-1.3.5-1.8-.1L91,18.6l1.7-1.7Z" fill="#dfdeca"/><path d="M94.2,29.2c1.1,1.5,2.6,1.9,3.8,1c1-.7,1.2-1.8.5-3.1L98,26c-.4-.7-.4-1.3.1-1.6.5-.4,1.2-.2,1.7.5s.5,1.4,0,1.9l.7.9c.9-.8,1-2.1.1-3.3-.9-1.3-2.1-1.6-3.1-.9-.9.6-1,1.5-.4,2.7l.6,1.1c.4.8.4,1.4-.3,1.9-.8.5-1.7.3-2.4-.7-.8-1.2-.6-2.4.6-3.2l-.7-1c-1.6,1.2-1.9,3.1-.7,4.9Z" fill="#dfdeca"/><path d="M105.9,34.1l-2.8,1.3-1.4-3l2.8-1.3-.5-1-7,3.3.5,1l3.3-1.5l1.4,3L99,37.4l.5,1l7-3.3-.6-1Z" fill="#dfdeca"/><path d="M100.3,40.8l.3,1l7.3-2.4-.3-1-7.3,2.4Z" fill="#dfdeca"/><path d="M107.6,48.1c1.3-.3,2-1.4,1.8-2.8l-.5-2.6-7.5,1.5.2,1l3.1-.6.3,1.5c.2,1.5,1.3,2.3,2.6,2Zm-1.8-2.2l-.3-1.5l2.6-.5.3,1.5c.2.8-.2,1.5-1,1.6s-1.4-.2-1.6-1.1Z" fill="#dfdeca"/><path d="M109.4,59.2h1l.1-3.9-7.7-.2v1.1l3.4.1-.1,2.8h1l.1-2.8l2.3.1-.1,2.8Z" fill="#dfdeca"/><path d="M101.7,64.9c-.4,2.3.9,4.3,3.1,4.8c2.2.4,4.2-.9,4.7-3.2.4-2.3-.9-4.3-3.1-4.7-2.2-.6-4.2.8-4.7,3.1Zm1,.2c.3-1.7,1.8-2.7,3.5-2.3c1.7.3,2.7,1.8,2.4,3.5s-1.8,2.7-3.5,2.3-2.7-1.8-2.4-3.5Z" fill="#dfdeca"/><path d="M98.5,75.4L98,76.7l4.4-1.5c-.5,1.2,0,2.3,1.1,2.8c1.2.5,2.3,0,2.8-1.3l1.1-2.8-7.1-2.9-.4,1l3.2,1.3-.3.7-4.3,1.4Zm7.7-.9l-.7,1.6c-.3.8-1,1.1-1.7.8s-1-1-.7-1.7l.7-1.6l2.4.9Z" fill="#dfdeca"/><path d="M98.8,89.6l2.9-4-.8-.6-1.1,1.6-5.5-3.9-.6.9l5.5,3.9L98,89l.8.6Z" fill="#dfdeca"/><path d="M93.5,95.3l-2.2-2.2l2.4-2.4l2.2,2.2.7-.8-5.5-5.4-.7.8L93,90l-2.4,2.4L88,89.9l-.7.8l5.5,5.4.7-.8Z" fill="#dfdeca"/><path d="M86.3,100l.5.7L90,98.3l-4.6-6.2-3.2,2.4.6.7l2.4-1.8l1.6,2.1-2.3,1.7.5.7l2.3-1.7L88.7,98l-2.4,2Z" fill="#dfdeca"/><path d="M77.2,97.7l-.9.4l2.5,6h-.1l-4.1-4.6-.9.4.4,6.2v0l-2.5-6-.9.4l2.9,7.1l1.5-.6-.5-6.1v0l4,4.6l1.5-.6-2.9-7.2Z" fill="#dfdeca"/><path d="M64.5,101.7c-2.3.4-3.7,2.4-3.3,4.6s2.4,3.6,4.7,3.2s3.7-2.4,3.3-4.6c-.4-2.3-2.4-3.6-4.7-3.2Zm.2.9c1.7-.3,3.1.7,3.4,2.4s-.7,3.2-2.4,3.5-3.1-.7-3.5-2.4c-.2-1.7.8-3.1,2.5-3.5Z" fill="#dfdeca"/><path d="M56.3,110.3h2l.1-7.7h-2c-2.3,0-4,1.5-4,3.8c0,2.2,1.6,3.8,3.9,3.9Zm.1-6.7h.9l-.1,5.8h-.9c-1.7,0-2.8-1.2-2.8-2.9.1-1.8,1.3-3,2.9-2.9Z" fill="#dfdeca"/><path d="M45.2,108.3l-.1.9l3.9.6l1.3-7.6-3.9-.6-.2.9l2.8.5-.4,2.6-2.9-.5-.1.9l2.9.5-.4,2.3-2.9-.5Z" fill="#dfdeca"/><path d="M39.5,99.6l-1.3-.4l1.8,4.3c-1.2-.4-2.3.2-2.7,1.3-.4,1.2.2,2.3,1.5,2.7l2.8.9l2.4-7.3-1-.3-1.1,3.3-.7-.2-1.7-4.3Zm1.5,7.6l-1.7-.5c-.8-.3-1.1-.9-.9-1.6s.9-1,1.7-.8l1.7.5-.8,2.4Z" fill="#dfdeca"/><path d="M36.7,98.5l-.9-.5-2.9,5.4v0l-.2-7-1-.5-3.6,6.8.9.5l2.9-5.4v0l.2,7.1l1,.5l3.6-6.9Z" fill="#dfdeca"/><path d="M25.7,91.5l-.9-.9-5.3,3.6v0l3.3-5.5-.9-.9-6.6,4.4.8.7l5.4-3.8v0l-3.3,5.5.9.8l5.3-3.6v0l-3.5,5.6.8.8l4-6.7Z" fill="#dfdeca"/><path d="M17.4,81.9c-1.3-1.9-3.7-2.4-5.6-1.2-1.9,1.3-2.3,3.7-1,5.6s3.7,2.4,5.6,1.2c1.8-1.3,2.2-3.7,1-5.6Zm-.9.5c1,1.4.6,3.2-.8,4.1-1.4,1-3.2.6-4.1-.8-1-1.4-.6-3.2.8-4.1s3.2-.6,4.1.8Z" fill="#dfdeca"/><path d="M12.2,72.2l-.5-1.3-2,4.2C9.2,73.9,8,73.5,6.9,74c-1.2.5-1.6,1.7-1.1,2.9L7,79.6l7.1-3-.4-1L10.5,77l-.3-.7l2-4.1ZM7.4,78.3l-.7-1.6c-.3-.8-.1-1.4.6-1.7s1.4,0,1.7.7l.7,1.6-2.3,1Z" fill="#dfdeca"/><path d="M10,68.5L3.5,70.2l.3,1l7.5-1.9-1-3.7-1,.2.7,2.7Z" fill="#dfdeca"/><path d="M2,62.4l.2,2l7.7-.8-.2-2c-.2-2.3-2-3.8-4.2-3.5-2.3.2-3.7,2-3.5,4.3Zm6.7-.7l.1.9-5.7.6-.1-.9c-.2-1.7.9-3,2.6-3.1c1.7-.2,2.9.9,3.1,2.5Z" fill="#dfdeca"/><path d="M10.8,45.2c.1-.3,0-.7-.1-1-.2-.4-.4-.7-.8-1s-.8-.6-1.4-.9c-.5-.3-1.2-.5-1.9-.6-.7-.2-1.3-.2-1.9-.3-.6,0-1.2.1-1.6.2-.5.1-.9.3-1.2.6-.3.2-.5.5-.6.9-.1.3,0,.7.1,1c.2.4.4.7.8,1s.8.6,1.4.9s1.2.5,1.9.6c.7.2,1.3.2,1.9.3.6,0,1.2-.1,1.6-.2.5-.1.9-.3,1.2-.6s.5-.6.6-.9ZM1.8,43c.1-.2.2-.5.5-.6.3-.2.7-.3,1.1-.4s.9-.1,1.4-.1s1.1.1,1.7.2c.5.2,1.1.4,1.5.6.5.2.9.5,1.3.7.4.3.6.5.8.8s.2.5.2.8c-.1.2-.2.5-.5.6-.3.2-.7.4-1.1.4-.4.1-.9.1-1.4.1s-1.1-.1-1.6-.2c-.7-.1-1.2-.3-1.7-.5s-.9-.5-1.3-.7c-.3-.3-.6-.5-.8-.8-.1-.4-.1-.6-.1-.9Zm-.5.2l9.4,2.2.1-.6-9.4-2.2-.1.6Zm6.6,1.3c-.1.5-.2,1-.2,1.5s0,.9.1,1.3.2.7.3,1l.5-.4c-.2-.4-.3-.9-.3-1.4c0-.6.1-1.2.2-1.9.2-.7.4-1.3.6-1.8.3-.5.6-.9.9-1.1l-.3-.5c-.3.2-.5.4-.7.8-.2.3-.5.7-.6,1.1-.2.4-.3.9-.5,1.4ZM6.8,39.4L4.6,48.5l.6.1l2.2-9.1-.6-.1ZM4.2,43.6c.1-.5.2-1,.2-1.5s0-.9-.1-1.3-.2-.7-.3-1l-.5.4c.2.4.3.9.3,1.4c0,.6-.1,1.2-.2,1.9-.2.7-.4,1.3-.6,1.8-.3.5-.6.9-.9,1.1l.3.5c.3-.2.5-.4.7-.8s.5-.7.6-1.1c.2-.4.3-.9.5-1.4ZM11,45.2c.2-.7.2-1.4.1-2-.1-.7-.4-1.3-.7-1.8-.4-.6-.8-1.1-1.3-1.5s-1.2-.7-1.8-.8c-.7-.2-1.4-.2-2-.1-.7.1-1.3.4-1.9.7s-1.1.8-1.5,1.3-.7,1.2-.8,1.8c-.2.7-.2,1.4-.1,2c.1.7.4,1.3.7,1.9s.8,1.1,1.3,1.5s1.2.7,1.8.8c.7.2,1.4.2,2,.1.7-.1,1.3-.4,1.9-.7.6-.4,1.1-.8,1.5-1.3.4-.6.7-1.2.8-1.9Zm-.6-.1c-.1.6-.4,1.1-.7,1.6-.4.5-.8.9-1.3,1.2s-1,.5-1.6.6-1.2.1-1.8-.1c-.6-.1-1.1-.4-1.6-.7-.5-.4-.9-.8-1.2-1.3s-.5-1-.6-1.6-.1-1.2,0-1.8.4-1.1.7-1.6c.4-.5.8-.9,1.3-1.2s1-.5,1.6-.6s1.2-.1,1.8.1c.6.1,1.1.4,1.6.7.5.4.9.8,1.2,1.3s.5,1,.6,1.6c.2.6.2,1.2,0,1.8Z" fill="#dfdeca"/></g><clipPath id="eWqHJELT6fe40"><use xlink:href="#eWqHJELT6fe2"/></clipPath></g></g></g><path d="M68.8,39.4L64.5,62c-1.5-5-3.6-11.8-5.3-22.6h-12l-.8,4.3h7.5c0,0-2.5,15.3-5.8,23.9-1.1,2.5-2.3,4.8-3.3,4.1-1.4-1-.9-7.6-.7-10.1l-4.4-.2c0,2.6-1.1,11.3,3.5,14.7c3.2,2.4,5.5-.3,7.2-3.3c0,0,0,0,.1-.1.7-1.2,3-4.8,6.4-21.9.3,1.3.5,2.6.8,3.9.9,3.7,4.6,14,4.6,14h5.2l5.8-29.4-4.5.1v0Z" fill="#dfdeca"/></svg>
